<mxfile host="app.diagrams.net" modified="2024-05-31T08:34:20.879Z" agent="Mozilla/5.0 (X11; Linux x86_64; rv:125.0) Gecko/20100101 Firefox/125.0" etag="-d6ZGQNS41pvrkhCRB-a" version="24.4.10" type="github">
  <diagram name="Page-1" id="hTidVdQijETApgF5tEx6">
    <mxGraphModel dx="1420" dy="734" grid="1" gridSize="10" guides="1" tooltips="1" connect="1" arrows="1" fold="1" page="1" pageScale="1" pageWidth="827" pageHeight="1169" math="0" shadow="0">
      <root>
        <mxCell id="0" />
        <mxCell id="1" parent="0" />
        <mxCell id="-FoMlSq1uIDgHhFryW10-17" value="" style="edgeStyle=orthogonalEdgeStyle;rounded=0;orthogonalLoop=1;jettySize=auto;html=1;" edge="1" parent="1" source="-FoMlSq1uIDgHhFryW10-12" target="-FoMlSq1uIDgHhFryW10-16">
          <mxGeometry relative="1" as="geometry" />
        </mxCell>
        <mxCell id="-FoMlSq1uIDgHhFryW10-12" value="Start" style="ellipse;whiteSpace=wrap;html=1;" vertex="1" parent="1">
          <mxGeometry x="40" y="80" width="120" height="80" as="geometry" />
        </mxCell>
        <mxCell id="-FoMlSq1uIDgHhFryW10-13" value="&lt;div&gt;Stop&lt;/div&gt;" style="ellipse;whiteSpace=wrap;html=1;" vertex="1" parent="1">
          <mxGeometry x="899" y="430" width="120" height="80" as="geometry" />
        </mxCell>
        <mxCell id="-FoMlSq1uIDgHhFryW10-19" value="" style="edgeStyle=orthogonalEdgeStyle;rounded=0;orthogonalLoop=1;jettySize=auto;html=1;" edge="1" parent="1" source="-FoMlSq1uIDgHhFryW10-16" target="-FoMlSq1uIDgHhFryW10-18">
          <mxGeometry relative="1" as="geometry" />
        </mxCell>
        <mxCell id="-FoMlSq1uIDgHhFryW10-16" value="cv::Mat Frame" style="whiteSpace=wrap;html=1;" vertex="1" parent="1">
          <mxGeometry x="240" y="90" width="120" height="60" as="geometry" />
        </mxCell>
        <mxCell id="-FoMlSq1uIDgHhFryW10-48" value="" style="edgeStyle=orthogonalEdgeStyle;rounded=0;orthogonalLoop=1;jettySize=auto;html=1;" edge="1" parent="1" source="-FoMlSq1uIDgHhFryW10-18" target="-FoMlSq1uIDgHhFryW10-47">
          <mxGeometry relative="1" as="geometry" />
        </mxCell>
        <mxCell id="-FoMlSq1uIDgHhFryW10-18" value="cv::VideoCapture cap" style="whiteSpace=wrap;html=1;" vertex="1" parent="1">
          <mxGeometry x="400" y="90" width="120" height="60" as="geometry" />
        </mxCell>
        <mxCell id="-FoMlSq1uIDgHhFryW10-22" value="False" style="edgeStyle=orthogonalEdgeStyle;rounded=0;orthogonalLoop=1;jettySize=auto;html=1;exitX=1;exitY=0.5;exitDx=0;exitDy=0;entryX=0.5;entryY=0;entryDx=0;entryDy=0;" edge="1" parent="1" source="-FoMlSq1uIDgHhFryW10-20" target="-FoMlSq1uIDgHhFryW10-13">
          <mxGeometry relative="1" as="geometry" />
        </mxCell>
        <mxCell id="-FoMlSq1uIDgHhFryW10-28" value="True" style="edgeStyle=orthogonalEdgeStyle;rounded=0;orthogonalLoop=1;jettySize=auto;html=1;" edge="1" parent="1" source="-FoMlSq1uIDgHhFryW10-20" target="-FoMlSq1uIDgHhFryW10-27">
          <mxGeometry relative="1" as="geometry" />
        </mxCell>
        <mxCell id="-FoMlSq1uIDgHhFryW10-20" value="&lt;div&gt;is cap&lt;/div&gt;&lt;div&gt;open&lt;br&gt;&lt;/div&gt;" style="rhombus;whiteSpace=wrap;html=1;" vertex="1" parent="1">
          <mxGeometry x="740" y="210" width="80" height="80" as="geometry" />
        </mxCell>
        <mxCell id="-FoMlSq1uIDgHhFryW10-32" value="" style="edgeStyle=orthogonalEdgeStyle;rounded=0;orthogonalLoop=1;jettySize=auto;html=1;" edge="1" parent="1" source="-FoMlSq1uIDgHhFryW10-27" target="-FoMlSq1uIDgHhFryW10-31">
          <mxGeometry relative="1" as="geometry" />
        </mxCell>
        <mxCell id="-FoMlSq1uIDgHhFryW10-27" value="cap.read(Frame)" style="whiteSpace=wrap;html=1;" vertex="1" parent="1">
          <mxGeometry x="719" y="330" width="120" height="60" as="geometry" />
        </mxCell>
        <mxCell id="-FoMlSq1uIDgHhFryW10-33" value="True" style="edgeStyle=orthogonalEdgeStyle;rounded=0;orthogonalLoop=1;jettySize=auto;html=1;exitX=1;exitY=0.5;exitDx=0;exitDy=0;entryX=0;entryY=0.5;entryDx=0;entryDy=0;" edge="1" parent="1" source="-FoMlSq1uIDgHhFryW10-31" target="-FoMlSq1uIDgHhFryW10-13">
          <mxGeometry relative="1" as="geometry" />
        </mxCell>
        <mxCell id="-FoMlSq1uIDgHhFryW10-35" value="" style="edgeStyle=orthogonalEdgeStyle;rounded=0;orthogonalLoop=1;jettySize=auto;html=1;" edge="1" parent="1" source="-FoMlSq1uIDgHhFryW10-31" target="-FoMlSq1uIDgHhFryW10-34">
          <mxGeometry relative="1" as="geometry" />
        </mxCell>
        <mxCell id="-FoMlSq1uIDgHhFryW10-31" value="&lt;div&gt;is frame&lt;/div&gt;&lt;div&gt;empty&lt;br&gt;&lt;/div&gt;" style="rhombus;whiteSpace=wrap;html=1;" vertex="1" parent="1">
          <mxGeometry x="739" y="430" width="80" height="80" as="geometry" />
        </mxCell>
        <mxCell id="-FoMlSq1uIDgHhFryW10-36" value="True" style="edgeStyle=orthogonalEdgeStyle;rounded=0;orthogonalLoop=1;jettySize=auto;html=1;exitX=1;exitY=0.5;exitDx=0;exitDy=0;" edge="1" parent="1" source="-FoMlSq1uIDgHhFryW10-34" target="-FoMlSq1uIDgHhFryW10-13">
          <mxGeometry relative="1" as="geometry" />
        </mxCell>
        <mxCell id="-FoMlSq1uIDgHhFryW10-38" value="" style="edgeStyle=orthogonalEdgeStyle;rounded=0;orthogonalLoop=1;jettySize=auto;html=1;" edge="1" parent="1" source="-FoMlSq1uIDgHhFryW10-34" target="-FoMlSq1uIDgHhFryW10-37">
          <mxGeometry relative="1" as="geometry" />
        </mxCell>
        <mxCell id="-FoMlSq1uIDgHhFryW10-34" value="is a key pressed" style="rhombus;whiteSpace=wrap;html=1;" vertex="1" parent="1">
          <mxGeometry x="739" y="550" width="80" height="80" as="geometry" />
        </mxCell>
        <mxCell id="-FoMlSq1uIDgHhFryW10-68" value="" style="edgeStyle=orthogonalEdgeStyle;rounded=0;orthogonalLoop=1;jettySize=auto;html=1;" edge="1" parent="1" source="-FoMlSq1uIDgHhFryW10-37" target="-FoMlSq1uIDgHhFryW10-39">
          <mxGeometry relative="1" as="geometry" />
        </mxCell>
        <mxCell id="-FoMlSq1uIDgHhFryW10-37" value="std::vector&amp;lt;int&amp;gt; marker_ids" style="whiteSpace=wrap;html=1;" vertex="1" parent="1">
          <mxGeometry x="500" y="560" width="120" height="60" as="geometry" />
        </mxCell>
        <mxCell id="-FoMlSq1uIDgHhFryW10-69" value="" style="edgeStyle=orthogonalEdgeStyle;rounded=0;orthogonalLoop=1;jettySize=auto;html=1;" edge="1" parent="1" source="-FoMlSq1uIDgHhFryW10-39" target="-FoMlSq1uIDgHhFryW10-63">
          <mxGeometry relative="1" as="geometry" />
        </mxCell>
        <mxCell id="-FoMlSq1uIDgHhFryW10-39" value="&lt;div&gt;vector&amp;lt;vector&amp;lt;Point2f&amp;gt;&amp;gt;&lt;/div&gt;&lt;div&gt;marker_corners&lt;/div&gt;&lt;div&gt;rejected candidates&lt;br&gt;&lt;/div&gt;" style="html=1;whiteSpace=wrap;horizontal=1;verticalAlign=middle;" vertex="1" parent="1">
          <mxGeometry x="202.5" y="545" width="180" height="90" as="geometry" />
        </mxCell>
        <mxCell id="-FoMlSq1uIDgHhFryW10-46" value="" style="edgeStyle=orthogonalEdgeStyle;rounded=0;orthogonalLoop=1;jettySize=auto;html=1;" edge="1" parent="1" source="-FoMlSq1uIDgHhFryW10-43" target="-FoMlSq1uIDgHhFryW10-45">
          <mxGeometry relative="1" as="geometry" />
        </mxCell>
        <mxCell id="-FoMlSq1uIDgHhFryW10-43" value="detector.detectMarkers()" style="shape=process;whiteSpace=wrap;html=1;backgroundOutline=1;" vertex="1" parent="1">
          <mxGeometry x="180" y="330" width="210" height="60" as="geometry" />
        </mxCell>
        <mxCell id="-FoMlSq1uIDgHhFryW10-54" value="" style="edgeStyle=orthogonalEdgeStyle;rounded=0;orthogonalLoop=1;jettySize=auto;html=1;" edge="1" parent="1" source="-FoMlSq1uIDgHhFryW10-45" target="-FoMlSq1uIDgHhFryW10-53">
          <mxGeometry relative="1" as="geometry" />
        </mxCell>
        <mxCell id="-FoMlSq1uIDgHhFryW10-78" style="edgeStyle=orthogonalEdgeStyle;rounded=0;orthogonalLoop=1;jettySize=auto;html=1;exitX=1;exitY=0.5;exitDx=0;exitDy=0;" edge="1" parent="1" source="-FoMlSq1uIDgHhFryW10-45" target="-FoMlSq1uIDgHhFryW10-77">
          <mxGeometry relative="1" as="geometry" />
        </mxCell>
        <mxCell id="-FoMlSq1uIDgHhFryW10-45" value="drawDetectedMarkers()" style="shape=process;whiteSpace=wrap;html=1;backgroundOutline=1;" vertex="1" parent="1">
          <mxGeometry x="180" y="210" width="210" height="60" as="geometry" />
        </mxCell>
        <mxCell id="-FoMlSq1uIDgHhFryW10-51" value="" style="edgeStyle=orthogonalEdgeStyle;rounded=0;orthogonalLoop=1;jettySize=auto;html=1;" edge="1" parent="1" source="-FoMlSq1uIDgHhFryW10-47" target="-FoMlSq1uIDgHhFryW10-50">
          <mxGeometry relative="1" as="geometry" />
        </mxCell>
        <mxCell id="-FoMlSq1uIDgHhFryW10-47" value="Read map from local file" style="whiteSpace=wrap;html=1;" vertex="1" parent="1">
          <mxGeometry x="560" y="90" width="120" height="60" as="geometry" />
        </mxCell>
        <mxCell id="-FoMlSq1uIDgHhFryW10-52" style="edgeStyle=orthogonalEdgeStyle;rounded=0;orthogonalLoop=1;jettySize=auto;html=1;exitX=0.5;exitY=1;exitDx=0;exitDy=0;entryX=0.5;entryY=0;entryDx=0;entryDy=0;" edge="1" parent="1" source="-FoMlSq1uIDgHhFryW10-50" target="-FoMlSq1uIDgHhFryW10-20">
          <mxGeometry relative="1" as="geometry" />
        </mxCell>
        <mxCell id="-FoMlSq1uIDgHhFryW10-50" value="Instantiate dictionary object with marker map" style="whiteSpace=wrap;html=1;" vertex="1" parent="1">
          <mxGeometry x="720" y="90" width="120" height="60" as="geometry" />
        </mxCell>
        <mxCell id="-FoMlSq1uIDgHhFryW10-53" value="Send processed frame to laptop" style="shape=process;whiteSpace=wrap;html=1;backgroundOutline=1;" vertex="1" parent="1">
          <mxGeometry x="450" y="250" width="210" height="60" as="geometry" />
        </mxCell>
        <mxCell id="-FoMlSq1uIDgHhFryW10-72" value="" style="edgeStyle=orthogonalEdgeStyle;rounded=0;orthogonalLoop=1;jettySize=auto;html=1;" edge="1" parent="1" source="-FoMlSq1uIDgHhFryW10-62" target="-FoMlSq1uIDgHhFryW10-71">
          <mxGeometry relative="1" as="geometry" />
        </mxCell>
        <mxCell id="-FoMlSq1uIDgHhFryW10-62" value="Dictionary dict = getPredefinedDictionary()" style="shape=process;whiteSpace=wrap;html=1;backgroundOutline=1;" vertex="1" parent="1">
          <mxGeometry x="450" y="440" width="200" height="60" as="geometry" />
        </mxCell>
        <mxCell id="-FoMlSq1uIDgHhFryW10-67" value="" style="edgeStyle=orthogonalEdgeStyle;rounded=0;orthogonalLoop=1;jettySize=auto;html=1;" edge="1" parent="1" source="-FoMlSq1uIDgHhFryW10-63" target="-FoMlSq1uIDgHhFryW10-62">
          <mxGeometry relative="1" as="geometry" />
        </mxCell>
        <mxCell id="-FoMlSq1uIDgHhFryW10-63" value="DetectorParameters param&amp;nbsp; = DetectorParameters() " style="shape=process;whiteSpace=wrap;html=1;backgroundOutline=1;" vertex="1" parent="1">
          <mxGeometry x="180" y="440" width="225" height="60" as="geometry" />
        </mxCell>
        <mxCell id="-FoMlSq1uIDgHhFryW10-73" value="" style="edgeStyle=orthogonalEdgeStyle;rounded=0;orthogonalLoop=1;jettySize=auto;html=1;" edge="1" parent="1" source="-FoMlSq1uIDgHhFryW10-71" target="-FoMlSq1uIDgHhFryW10-43">
          <mxGeometry relative="1" as="geometry" />
        </mxCell>
        <mxCell id="-FoMlSq1uIDgHhFryW10-71" value="ArucoDetector detector(dict, params)" style="whiteSpace=wrap;html=1;" vertex="1" parent="1">
          <mxGeometry x="490" y="330" width="120" height="60" as="geometry" />
        </mxCell>
        <mxCell id="-FoMlSq1uIDgHhFryW10-77" value="Interpret Marker and send instruction" style="shape=process;whiteSpace=wrap;html=1;backgroundOutline=1;fontStyle=0" vertex="1" parent="1">
          <mxGeometry x="450" y="170" width="210" height="60" as="geometry" />
        </mxCell>
        <mxCell id="-FoMlSq1uIDgHhFryW10-86" value="" style="edgeStyle=orthogonalEdgeStyle;rounded=0;orthogonalLoop=1;jettySize=auto;html=1;" edge="1" parent="1" source="-FoMlSq1uIDgHhFryW10-82" target="-FoMlSq1uIDgHhFryW10-27">
          <mxGeometry relative="1" as="geometry">
            <Array as="points">
              <mxPoint x="700" y="360" />
            </Array>
          </mxGeometry>
        </mxCell>
        <mxCell id="-FoMlSq1uIDgHhFryW10-82" value="" style="shape=waypoint;sketch=0;fillStyle=solid;size=6;pointerEvents=1;points=[];fillColor=none;resizable=0;rotatable=0;perimeter=centerPerimeter;snapToPoint=1;" vertex="1" parent="1">
          <mxGeometry x="690" y="270" width="20" height="20" as="geometry" />
        </mxCell>
        <mxCell id="-FoMlSq1uIDgHhFryW10-83" style="edgeStyle=orthogonalEdgeStyle;rounded=0;orthogonalLoop=1;jettySize=auto;html=1;exitX=1;exitY=0.5;exitDx=0;exitDy=0;entryX=0.6;entryY=0.75;entryDx=0;entryDy=0;entryPerimeter=0;endArrow=none;endFill=0;" edge="1" parent="1" source="-FoMlSq1uIDgHhFryW10-77" target="-FoMlSq1uIDgHhFryW10-82">
          <mxGeometry relative="1" as="geometry" />
        </mxCell>
        <mxCell id="-FoMlSq1uIDgHhFryW10-84" style="edgeStyle=orthogonalEdgeStyle;rounded=0;orthogonalLoop=1;jettySize=auto;html=1;exitX=1;exitY=0.5;exitDx=0;exitDy=0;entryX=-0.1;entryY=0.4;entryDx=0;entryDy=0;entryPerimeter=0;endArrow=none;endFill=0;" edge="1" parent="1" source="-FoMlSq1uIDgHhFryW10-53" target="-FoMlSq1uIDgHhFryW10-82">
          <mxGeometry relative="1" as="geometry" />
        </mxCell>
      </root>
    </mxGraphModel>
  </diagram>
</mxfile>
